<svg width="160" height="161" viewBox="0 0 160 161" fill="none" xmlns="http://www.w3.org/2000/svg">
<path fill-rule="evenodd" clip-rule="evenodd" d="M60.6897 0.5H55.1724V6.01724H60.6897V0.5ZM88.2758 0.5H82.7586V6.01724H88.2758V0.5ZM88.2759 0.5H93.7931V6.01724H88.2759V0.5ZM104.828 0.5H99.3104V6.01724H104.828V0.5ZM44.1379 6.01724H49.6552H49.6552H55.1724V11.5345V17.0517V22.569V28.0862V33.6035H49.6552V39.1207V44.6379V50.1552H44.1379V44.6379V39.1207V33.6035H49.6552V28.0862V22.569H44.1379V17.0517V11.5345V6.01724ZM60.6896 6.01724H66.2069V11.5345L60.6897 11.5345V17.0517H66.2069V22.569H60.6896V17.0517H55.1724V11.5345L60.6896 11.5345V6.01724ZM71.7242 6.01724H66.2069V11.5345V17.0517H71.7242H77.2414V11.5345V6.01724H71.7242ZM82.7586 6.01724H77.2414V11.5345H82.7586L82.7586 17.0517H88.2758V11.5345L82.7586 11.5345V6.01724ZM99.3103 6.01724H93.7931V11.5345H99.3103V6.01724ZM110.345 6.01724H115.862V11.5345V17.0517V22.569V28.0862V33.6035V39.1207V44.6379H110.345V39.1207V33.6035V28.0862V22.569V17.0517V11.5345V6.01724ZM115.862 44.6379H121.379V50.1552H115.862L115.862 44.6379ZM104.828 11.5345H99.3104V17.0517H104.828V11.5345ZM88.2759 17.0517H93.7931H99.3103V22.569H93.7931V28.0862H88.2759V22.569V17.0517ZM82.7586 22.569H88.2758V28.0862V33.6035H82.7586V28.0862V22.569ZM82.7586 33.6035L82.7586 39.1207H88.2758V44.6379H82.7586H77.2414V39.1207V33.6035H82.7586ZM104.828 22.569H110.345V28.0862H104.828V22.569ZM71.7242 28.0862H66.2069V33.6035V39.1207H71.7242V33.6035V28.0862ZM60.6897 33.6035H55.1724V39.1207H60.6896V44.6379H55.1724V50.1552H60.6897V44.6379H66.2069V39.1207H60.6897V33.6035ZM88.2759 33.6035H93.7931V39.1207V44.6379H99.3103V50.1552V55.6724V61.1897H93.7931H88.2759V55.6724V50.1552V44.6379V39.1207V33.6035ZM104.828 33.6035H99.3104V39.1207V44.6379H104.828L104.828 50.1552H99.3104V55.6724H104.828H110.345V50.1552V44.6379H104.828V39.1207V33.6035ZM0 44.6379H5.51724V50.1552V55.6724H0V50.1552V44.6379ZM5.51721 61.1897L5.51724 55.6724L11.0345 55.6724V61.1897H5.51721ZM5.51724 66.7069H0V61.1897H5.51721L5.51724 66.7069ZM5.51724 66.7069H11.0345V72.2241H5.51721L5.51724 66.7069ZM38.6207 44.6379H33.1035V50.1552H38.6207V44.6379ZM121.379 44.6379H126.897V50.1552H121.379V44.6379ZM126.897 50.1552H132.414V55.6724H126.897L126.897 50.1552ZM143.448 44.6379H137.931V50.1552H132.414V55.6724H137.931L137.931 50.1552H143.448L143.448 55.6724H148.965V50.1552V44.6379H143.448ZM154.483 44.6379H148.966V50.1552V55.6724H154.483V50.1552V44.6379ZM16.5517 50.1552H11.0345V55.6724V61.1897V66.7069H16.5517V61.1897H22.0689V55.6724L16.5517 55.6724V50.1552ZM27.5862 50.1552H33.1034V55.6724H27.5862V50.1552ZM27.5862 61.1897H22.069V55.6724L27.5862 55.6724L27.5862 61.1897ZM27.5862 72.2241V66.7069L27.5862 61.1897H33.1034V66.7069V72.2241H27.5862ZM27.5862 72.2241L27.5862 77.7414V83.2586H22.069V77.7414V72.2241H27.5862ZM77.2414 50.1552H71.7241V55.6724L66.2069 55.6724V61.1897V66.7069H71.7242L71.7241 72.2241H77.2414V66.7069V61.1897V55.6724V50.1552ZM33.1035 55.6724H38.6207H38.6207H44.1379V61.1897V66.7069H38.6207V61.1897H33.1035V55.6724ZM38.6207 72.2241H33.1035V66.7069H38.6207L38.6207 72.2241ZM38.6207 77.7414L38.6207 72.2241H44.1379V77.7414H38.6207ZM38.6207 77.7414L38.6207 83.2586H33.1035V77.7414H38.6207ZM44.1379 55.6724H49.6552H49.6552H55.1724V61.1897V66.7069H49.6552V72.2241H44.1379V66.7069V61.1897V55.6724ZM49.6552 72.2241H55.1724V77.7414V83.2586V88.7759H49.6552H44.1379V83.2586V77.7414H49.6552L49.6552 72.2241ZM77.2414 55.6724H82.7586H88.2758V61.1897H82.7586H77.2414V55.6724ZM55.1724 61.1897H60.6897V66.7069V72.2241V77.7414H55.1724V72.2241V66.7069V61.1897ZM115.862 61.1897H110.345V66.7069V72.2241V77.7414H115.862L115.862 83.2586H121.379V77.7414V72.2241H115.862V66.7069V61.1897ZM121.379 61.1897H126.897H132.414V66.7069V72.2241H126.897V77.7414H121.379V72.2241V66.7069V61.1897ZM126.897 77.7414H132.414V83.2586V88.7759V94.2931V99.8103H126.897H121.379V94.2931H126.897V88.7759V83.2586L126.897 77.7414ZM137.931 61.1897H143.448V66.7069H137.931V61.1897ZM88.2758 66.7069H82.7586V72.2241H88.2758V66.7069ZM88.2759 66.7069H93.7931V72.2241V77.7414H88.2759V72.2241V66.7069ZM93.7931 77.7414H99.3103V83.2586H93.7931L93.7931 77.7414ZM110.345 66.7069H104.828V72.2241V77.7414H99.3104V83.2586V88.7759V94.2931V99.8103H104.828L104.828 105.328L99.3104 105.328V110.845H104.828L104.828 105.328H110.345V99.8103V94.2931V88.7759V83.2586H104.828L104.828 77.7414H110.345V72.2241V66.7069ZM160 66.7069H154.483V72.2241V77.7414H160V72.2241V66.7069ZM11.0345 72.2241H16.5517V77.7414H11.0345V72.2241ZM132.414 72.2241H137.931V77.7414H132.414V72.2241ZM143.448 99.8103H148.965V94.2931V88.7759V83.2586V77.7414H143.448H137.931L137.931 83.2586H132.414V88.7759H137.931L137.931 94.2931H132.414V99.8103H137.931L137.931 105.328L132.414 105.328V110.845V116.362V121.879V127.397V132.914V138.431H137.931L137.931 143.948H132.414V149.466H137.931L137.931 154.983H132.414V160.5H137.931H143.448H148.965V154.983V149.466V143.948V138.431H143.448V132.914H137.931V127.397H143.448H148.965V121.879H143.448L143.448 116.362H148.965V110.845H143.448V116.362H137.931V110.845L137.931 105.328H143.448L143.448 99.8103ZM143.448 99.8103L143.448 94.2931H137.931L137.931 99.8103H143.448ZM137.931 88.7759L137.931 83.2586H143.448L143.448 88.7759H137.931ZM154.483 72.2241H148.966V77.7414H154.483V72.2241ZM5.51724 77.7414H0V83.2586H5.51724H11.0345V77.7414H5.51724ZM60.6897 83.2586H55.1724V88.7759H60.6897L60.6896 94.2931V99.8103V105.328L55.1724 105.328V110.845H60.6897L60.6896 116.362H55.1724V121.879H60.6897L60.6896 116.362H66.2069V110.845H60.6897L60.6896 105.328H66.2069V99.8103V94.2931V88.7759H60.6897V83.2586ZM82.7586 83.2586H88.2758V88.7759H82.7586V83.2586ZM154.483 83.2586H160V88.7759H154.483V83.2586ZM5.51724 88.7759H0V94.2931V99.8103V105.328V110.845V116.362H5.51724V110.845V105.328H11.0345V99.8103H5.51724V94.2931V88.7759ZM22.069 88.7759H27.5862H33.1034V94.2931H27.5862H22.069V88.7759ZM33.1035 88.7759H38.6207V94.2931H33.1035V88.7759ZM38.6207 99.8103L38.6207 94.2931H44.1379V99.8103H38.6207ZM38.6207 99.8103L38.6207 105.328H33.1035V99.8103H38.6207ZM88.2759 88.7759H93.7931H99.3103V94.2931V99.8103H93.7931L93.7931 94.2931H88.2759V88.7759ZM49.6552 94.2931H44.1379V99.8103V105.328H49.6552L49.6552 110.845V116.362H44.1379V121.879H49.6552H55.1724V116.362V110.845V105.328V99.8103V94.2931H49.6552ZM71.7241 94.2931H77.2414V99.8103H71.7241V94.2931ZM82.7586 94.2931H77.2414V99.8103H82.7586L82.7586 105.328H88.2758V99.8103H82.7586V94.2931ZM115.862 94.2931H110.345V99.8103H115.862V94.2931ZM148.966 94.2931H154.483V99.8103H148.966V94.2931ZM160 94.2931H154.483V99.8103V105.328H160V99.8103V94.2931ZM16.5517 99.8103H22.0689V105.328V110.845H16.5517H11.0345V105.328L16.5517 105.328V99.8103ZM27.5862 99.8103H22.069V105.328H27.5862L27.5862 110.845H22.069V116.362H27.5862L27.5862 110.845H33.1034V105.328V99.8103H27.5862ZM71.7242 105.328H66.2069V110.845H71.7242H77.2414V105.328H71.7242ZM110.345 105.328H115.862H121.379V110.845V116.362H115.862V121.879V127.397V132.914H121.379V138.431V143.948V149.466V154.983V160.5H115.862V154.983V149.466V143.948L115.862 138.431H110.345V132.914V127.397V121.879V116.362V110.845V105.328ZM121.379 105.328H126.897H132.414V110.845V116.362H126.897H121.379V110.845V105.328ZM38.6207 110.845H33.1035V116.362H38.6207H44.1379V110.845H38.6207ZM82.7586 110.845H77.2414V116.362V121.879H82.7586V116.362H88.2758V110.845H82.7586ZM99.3103 110.845H93.7931V116.362V121.879H99.3103V116.362V110.845ZM148.966 110.845H154.483V116.362H148.966V110.845ZM160 110.845H154.483V116.362H160V110.845ZM104.828 116.362H99.3104V121.879V127.397H104.828L104.828 132.914V138.431H99.3104V143.948H104.828L104.828 149.466V154.983H99.3104V160.5H104.828H110.345V154.983V149.466V143.948H104.828L104.828 138.431H110.345V132.914V127.397V121.879H104.828V116.362ZM71.7242 121.879H66.2069V127.397H71.7242V121.879ZM126.897 121.879H121.379V127.397H126.897V121.879ZM60.6897 127.397H55.1724V132.914H60.6897H66.2069V127.397H60.6897ZM82.7586 127.397H77.2414V132.914V138.431V143.948H82.7586L82.7586 149.466V154.983H77.2414V160.5H82.7586L82.7586 154.983H88.2758V149.466V143.948H82.7586V138.431V132.914H88.2758V127.397H82.7586ZM93.7931 127.397H88.2759V132.914V138.431H93.7931L93.7931 143.948H88.2759V149.466H93.7931H99.3103V143.948V138.431H93.7931V132.914V127.397ZM160 127.397H154.483V132.914H160V127.397ZM66.2069 132.914H71.7242H77.2414V138.431V143.948H71.7241L71.7242 138.431H66.2069V132.914ZM126.897 132.914H121.379V138.431H126.897L126.897 143.948H121.379V149.466H126.897L126.897 154.983H121.379V160.5H126.897H132.414V154.983V149.466V143.948V138.431V132.914H126.897ZM55.1724 138.431H49.6552V143.948V149.466H55.1724V143.948V138.431ZM55.1724 138.431H60.6897H66.2069V143.948H60.6897V149.466H55.1724V143.948V138.431ZM148.966 138.431H154.483V143.948V149.466H148.966V143.948V138.431ZM66.2069 149.466H71.7242V154.983H66.2069V149.466ZM71.7242 154.983H77.2414V160.5H71.7241L71.7242 154.983ZM160 149.466H154.483V154.983H160V149.466ZM44.1379 154.983H49.6552H55.1724V160.5H49.6552H44.1379V154.983ZM60.6896 154.983H66.2069V160.5H60.6896V154.983ZM99.3103 154.983H93.7931V160.5H99.3103V154.983Z" fill="white"/>
<path fill-rule="evenodd" clip-rule="evenodd" d="M5.7931 0.5H32.8276H38.6207V6.2931V33.3276V39.1207H32.8276H5.7931H0V33.3276V6.2931V0.5H5.7931ZM5.7931 33.3276H32.8276V6.2931H5.7931V33.3276Z" fill="white"/>
<path fill-rule="evenodd" clip-rule="evenodd" d="M127.172 0.5H154.207H160V6.2931V33.3276V39.1207H154.207H127.172H121.379V33.3276V6.2931V0.5H127.172ZM127.172 33.3276H154.207V6.2931H127.172V33.3276Z" fill="white"/>
<path fill-rule="evenodd" clip-rule="evenodd" d="M5.7931 121.879H32.8276H38.6207V127.672V154.707V160.5H32.8276H5.7931H0V154.707V127.672V121.879H5.7931ZM5.7931 154.707H32.8276V127.672H5.7931V154.707Z" fill="white"/>
<rect x="11.0345" y="11.5345" width="16.5517" height="16.5517" fill="white"/>
<rect x="132.414" y="11.5345" width="16.5517" height="16.5517" fill="white"/>
<rect x="11.0345" y="132.914" width="16.5517" height="16.5517" fill="white"/>
</svg>
